<?xml version="1.0" encoding="UTF-8"?>
<svg viewBox="0 0 173 33" xmlns="http://www.w3.org/2000/svg">
<path d="m4.1904 32.607 2.4018-6.8784h10.22l2.3891 6.8784h4.1904l-9.4156-25.991h-4.5609l-9.4156 25.991h4.1904zm3.5516-10.178 3.8582-11.092h0.2044l3.8582 11.092h-7.9208z" fill="#fff"/>
<path d="m26.864 32.607h3.8199v-11.904c0-2.5508 1.9802-4.3909 4.6886-4.3909 0.7921 0 1.6864 0.1396 1.993 0.2284v-3.6295c-0.3832-0.0508-1.137-0.0889-1.6225-0.0889-2.2996 0-4.267 1.2945-4.9824 3.3884h-0.2044v-3.0965h-3.6922v19.493z" fill="#fff"/>
<path d="m48.234 33c5.5318 0 9.1473-4.0229 9.1473-10.051 0-6.0662-3.6155-10.089-9.1473-10.089-5.5319 0-9.1474 4.0229-9.1474 10.089 0 6.0281 3.6155 10.051 9.1474 10.051zm0.0127-3.1854c-3.6155 0-5.3018-3.1346-5.3018-6.8783 0-3.7311 1.6863-6.9037 5.3018-6.9037 3.59 0 5.2763 3.1726 5.2763 6.9037 0 3.7437-1.6863 6.8783-5.2763 6.8783z" fill="#fff"/>
<path d="m74.076 24.523c0.0128 3.3123-2.4656 4.8859-4.6119 4.8859-2.3635 0-3.9988-1.7005-3.9988-4.3529v-11.942h-3.8199v12.399c0 4.8351 2.6701 7.3479 6.4389 7.3479 2.9511 0 4.9569-1.5483 5.864-3.6295h0.2044v3.3757h3.756v-19.493h-3.8327v11.409z" fill="#fff"/>
<path d="m86.861 21.033c0-3.1092 1.9163-4.8859 4.5736-4.8859 2.5935 0 4.1649 1.6878 4.1649 4.5179v11.942h3.8199v-12.399c0-4.8225-2.6701-7.3479-6.6817-7.3479-2.9511 0-4.8802 1.3579-5.7873 3.4265h-0.2427v-3.1727h-3.6666v19.493h3.8199v-11.574z" fill="#fff"/>
<path d="m111.89 32.987c3.578 0 4.983-2.1701 5.673-3.4138h0.319v3.0331h3.731v-25.991h-3.82v9.6576h-0.23c-0.69-1.2056-1.993-3.4138-5.647-3.4138-4.74 0-8.227 3.7184-8.227 10.038 0 6.3073 3.436 10.089 8.201 10.089zm0.844-3.2361c-3.411 0-5.187-2.9823-5.187-6.8911 0-3.8706 1.737-6.7768 5.187-6.7768 3.334 0 5.123 2.7031 5.123 6.7768 0 4.0991-1.827 6.8911-5.123 6.8911z" fill="#fff"/>
<path d="m126.6 1.0491h2.743v7.7328h1.056v-7.7328h2.742v-0.93065h-6.541v0.93065z" fill="#fff"/>
<path d="m135.64 4.8732c0-1.1337 0.728-1.7767 1.72-1.7767 0.946 0 1.516 0.59223 1.516 1.6244v4.061h1.005v-4.1287c0-1.6709-0.894-2.4535-2.231-2.4535-1.031 0-1.618 0.42725-1.925 1.0999h-0.085v-3.1811h-1.005v8.6635h1.005v-3.9087z" fill="#fff"/>
<path d="m144.46 8.9173c1.328 0 2.299-0.65992 2.606-1.6413l-0.971-0.27073c-0.256 0.67683-0.848 1.0152-1.635 1.0152-1.18 0-1.993-0.75721-2.04-2.149h4.748v-0.42303c0-2.4197-1.448-3.2488-2.811-3.2488-1.771 0-2.947 1.3875-2.947 3.3842s1.159 3.3334 3.05 3.3334zm-2.04-3.9087c0.068-1.011 0.788-1.9121 1.937-1.9121 1.091 0 1.789 0.8122 1.789 1.9121h-3.726z" fill="#fff"/>
<path d="m157.93 0.11845v5.6516c0 1.2691-0.877 2.1828-2.333 2.1828-1.457 0-2.334-0.91373-2.334-2.1828v-5.6516h-1.056v5.7362c0 1.7767 1.337 3.0796 3.39 3.0796 2.052 0 3.389-1.3029 3.389-3.0796v-5.7362h-1.056z" fill="#fff"/>
<path d="m161.28 8.8496c0.421 0 0.766-0.34265 0.766-0.76145 0-0.41879-0.345-0.76144-0.766-0.76144-0.422 0-0.767 0.34265-0.767 0.76144 0 0.4188 0.345 0.76145 0.767 0.76145z" fill="#fff"/>
<path d="m168.76 2.2843h1.022c-0.047-1.3071-1.261-2.2843-2.947-2.2843-1.67 0-2.981 0.96449-2.981 2.4197 0 1.1675 0.851 1.8613 2.214 2.2505l1.073 0.30458c0.92 0.25381 1.738 0.57531 1.738 1.4383 0 0.94758-0.92 1.5736-2.129 1.5736-1.04 0-1.959-0.45687-2.045-1.4383h-1.09c0.102 1.4214 1.261 2.3858 3.135 2.3858 2.01 0 3.151-1.0999 3.151-2.5043 0-1.6244-1.55-2.149-2.453-2.3858l-0.886-0.2369c-0.647-0.1692-1.686-0.50762-1.686-1.4383 0-0.82913 0.766-1.4383 1.925-1.4383 1.056 0 1.856 0.49917 1.959 1.3537z" fill="#fff"/>
<path d="m172.23 8.8496c0.422 0 0.767-0.34265 0.767-0.76145 0-0.41879-0.345-0.76144-0.767-0.76144-0.421 0-0.766 0.34265-0.766 0.76144 0 0.4188 0.345 0.76145 0.766 0.76145z" fill="#fff"/>
</svg>
