<svg xmlns="http://www.w3.org/2000/svg" width="21" height="19" fill="none" xmlns:v="https://vecta.io/nano"><path d="M19.376 9.786c2.165-2.242 2.165-5.884 0-8.104-2.165-2.242-5.68-2.242-7.845 0l-1.05 1.11-1.05-1.088C7.266-.561 3.751-.561 1.608 1.682.557 2.77 0 4.213 0 5.745S.579 8.72 1.608 9.808L10.481 19l8.895-9.214zM1.372 5.745c0-1.155.429-2.22 1.222-3.02.814-.844 1.865-1.266 2.915-1.266s2.101.422 2.915 1.266l2.058 2.109 2.058-2.131c1.608-1.665 4.244-1.665 5.83 0 .772.799 1.222 1.865 1.222 3.02s-.429 2.22-1.222 3.02l-7.888 8.193-7.888-8.171c-.772-.822-1.222-1.887-1.222-3.02z" fill="#000"/></svg>